<?xml version="1.0" standalone="no"?>
<!DOCTYPE svg PUBLIC "-//W3C//DTD SVG 1.1//EN" "http://www.w3.org/Graphics/SVG/1.1/DTD/svg11.dtd">
<svg xmlns="http://www.w3.org/2000/svg">
<metadata>Copyright (C) 2019 by original authors @ fontello.com</metadata>
<defs>
<font id="rcicons" horiz-adv-x="1000" >
<font-face font-family="rcicons" font-weight="400" font-stretch="normal" units-per-em="1000" ascent="850" descent="-150" />
<missing-glyph horiz-adv-x="1000" />
<glyph glyph-name="delete" unicode="&#xe800;" d="M515 758c-211 0-384-173-384-385 0-211 173-385 384-385s385 174 385 385c0 212-173 385-385 385z m227-416c0-15-11-27-30-27h-397c-15 0-30 12-30 27v62c0 15 11 27 30 27h397c15 0 30-12 30-27v-62z" horiz-adv-x="1000" />

<glyph glyph-name="ok" unicode="&#xe801;" d="M515 735c-211 0-384-173-384-385 0-211 173-385 384-385s385 174 385 385c0 212-173 385-385 385z m239-296l-304-304c-11-12-27-12-38 0l-139 138c-11 12-11 27 0 39l42 42c12 11 27 11 39 0l58-58c11-11 27-11 38 0l219 219c12 12 27 12 39 0l42-42c15-8 15-23 4-34z" horiz-adv-x="1000" />

<glyph glyph-name="comment" unicode="&#xe802;" d="M131 65v504c0 73 58 131 131 131h507c73 0 131-58 131-131v-288c0-73-58-131-131-131h-496c-4 0-11-4-15-8l-93-92c-11-15-34-4-34 15z m131 574c-39 0-73-31-73-74v-411l46 46c4 4 7 8 15 8h519c39 0 73 31 73 73v288c0 39-30 73-73 73h-507z" horiz-adv-x="1000" />

<glyph glyph-name="bookmark" unicode="&#xe803;" d="M780-140l-260 290c-10 10-25 10-35 0l-260-295c-20-20-45-5-45 30v930c-5 20 10 35 25 35h590c15 0 30-15 30-35v-925c0-35-30-50-45-30z" horiz-adv-x="1000" />

<glyph glyph-name="branch" unicode="&#xe804;" d="M875 600c0 76-58 134-134 134s-134-58-134-134c0-49 27-89 63-112-18-142-139-183-210-196v313c45 22 71 62 71 111 0 76-58 134-134 134s-134-58-134-134c0-49 27-94 67-116v-500c-40-22-67-67-67-116 0-76 58-134 134-134s134 58 134 134c0 49-26 94-67 116v58c63 9 166 31 246 112 58 58 89 129 98 214 40 22 67 67 67 116z m-478 161c27 0 45-18 45-45s-18-45-45-45-44 18-44 45 18 45 44 45z m0-822c-26 0-44 18-44 45s18 45 44 45 45-18 45-45-22-45-45-45z m344 706c27 0 45-18 45-45s-18-45-45-45-45 18-45 45 23 45 45 45z" horiz-adv-x="1000" />

<glyph glyph-name="tag" unicode="&#xe805;" d="M460 788l-366 8c-18 0-31-13-31-31l13-366c0-9 4-13 9-22l464-465c14-13 31-13 45 0l352 353c14 14 14 31 0 45l-468 469c-5 4-14 9-18 9z m-103-224c0-35-31-67-67-67-35 0-67 32-67 67 0 36 32 67 67 67s67-26 67-67z" horiz-adv-x="1000" />

<glyph glyph-name="lock" unicode="&#xe806;" d="M813 426h-54v107c0 9 0 13 0 18 0 4 0 9 0 13 0 5 0 5 0 9 0 9 0 14-4 23 0 4 0 4-5 9 0 8-4 13-9 22 0 0 0 4-4 4-5 9-9 18-14 27 0 0-4 5-4 5 4 8 0 17-5 22 0 4-4 4-4 9-5 4-9 13-14 18 0 0-4 4-4 4-9 9-13 14-22 22 0 0-5 0-5 5-4 4-13 9-22 13-5 0-5 5-9 5-4 4-13 9-18 9-4 0-4 4-9 4-9 5-18 9-27 9 0 0 0 0 0 0-9 5-17 5-31 9-4 0-4 0-9 0-4 0-4 0-9 0 0 0-4 0-4 0 0 0-5 0-5 0 0 0 0 0 0 0 0 0 0 0 0 0-4 0-9 0-9 0 0 0-4 0-4 0-4 0-4 0-9 0 0 0 0 0 0 0-4 0-9 0-9 0 0 0 0 0 0 0 0 0 0 0 0 0 0 0-4 0-4 0 0 0-5 0-5 0-4 0-4 0-9 0-4 0-4 0-9 0-9 0-22-4-31-9 0 0 0 0 0 0-22 0-36-4-45-9-4 0-4-4-8-4-5-5-9-5-18-9 0-5-5-5-5-5-9-4-18-9-22-18 0 0-5 0-5-4-9-4-13-9-22-18 0 0-4-4-4-4-5-5-9-14-14-18 0-5-4-5-4-9-9-5-14-14-14-18-4 0-4-4-4-4-5-9-9-18-13-27 0 0 0-5-5-5 0-13-4-18-4-26 0-5 0-5-5-9 0-9-4-14-4-23 0-4 0-4 0-9 0-4 0-9 0-13 0-5 0-13 0-18v-107h-49c-18 0-27-13-27-27v-464c0-18 13-27 27-27h620c18 0 27 13 27 27v464c4 18-9 27-22 27z m-451 107c0 67 49 121 111 134 0 0 0 0 5 0 9 0 13 0 22 0 0 0 5 0 5 0 0 0 0 0 0 0 8 0 13 0 22 0 0 0 0 0 4 0 63-13 112-67 112-134v-107h-281v107z" horiz-adv-x="1000" />

<glyph glyph-name="unlock" unicode="&#xe807;" d="M781 415h-385v93c0 57 43 104 96 115 0 0 0 0 4 0 8 0 12 0 19 0 0 0 4 0 4 0 0 0 0 0 4 0 8 0 16 0 23-4 0 0 0 0 0 0 8 0 12-4 19-7 0 0 4 0 4-4 4-4 12-4 16-8 0 0 0 0 0 0 4-4 11-8 15-11 0 0 4-4 4-4 4-4 8-8 11-12 0 0 0 0 4-4 4-4 8-11 12-19 0 0 0-4 0-4 4-4 4-11 4-15 0 0 0-4 0-4 0 0 0 0 0-4 4-11 11-19 23-19h57c16 0 27 11 24 27 0 0 0 0 0 0 0 0 0 4 0 4 0 7-4 11-4 19 0 4 0 4-4 8 0 15 0 19-4 27 0 0 0 3-4 3-4 8-8 16-11 23 0 0-4 4-4 4-4 8-8 12-12 16 0 4-4 4-4 7-3 4-7 12-11 16 0 0-4 4-4 4-8 7-12 11-19 19 0 0-4 0-4 4-4 4-12 7-19 11-4 0-4 4-8 4-4 4-12 8-15 8-4 0-4 4-8 4-8 3-15 7-23 7 0 0 0 0 0 0-8 4-16 4-27 8-4 0-4 0-8 0-7 0-11 0-19 4-4 0-8 0-8 0-7 0-15 0-23 0 0 0-4 0-4 0-7 0-15-4-27-4-3 0-11-4-15-4 0 0-4 0-4 0-92-27-157-115-157-215v-93h-43c-15 0-23-11-23-23v-400c0-15 12-23 23-23h535c15 0 23 12 23 23v400c4 12-8 23-23 23z" horiz-adv-x="1000" />

<glyph glyph-name="feed" unicode="&#xe808;" d="M842 739h-653c-35 0-58-27-58-58v-658c0-31 27-58 58-58h657c31 0 58 27 58 58v658c-4 31-31 58-62 58z m-534-666c-39 0-73 31-73 73s30 73 73 73c38 0 73-30 73-73s-35-73-73-73z m246-11c-35 0-58 27-58 57 0 112-88 200-200 200-31 0-65 27-65 58 0 35 23 62 54 62l11 0c177 0 319-143 319-320-3-30-30-57-61-57z m196 0c-35 0-58 27-58 57 0 220-180 400-400 400-30 0-65 27-65 62 0 34 23 61 54 61l11 0c285 0 520-230 520-519 0-34-27-61-62-61z" horiz-adv-x="1000" />

<glyph glyph-name="left" unicode="&#xe809;" d="M692 773l70-69c11-12 11-27 0-39l-289-288c-11-12-11-27 0-38l296-297c12-11 12-27 0-38l-69-69c-11-12-27-12-38 0l-404 404c-12 11-12 26 0 38l396 396c11 12 27 12 38 0z" horiz-adv-x="1000" />

<glyph glyph-name="right" unicode="&#xe80a;" d="M339-65l-74 69c-11 11-11 27 0 38l289 289c11 11 11 27 0 38l-296 296c-12 12-12 27 0 39l69 69c12 12 27 12 38 0l404-404c12-11 12-27 0-38l-392-396c-12-12-31-12-38 0z" horiz-adv-x="1000" />

<glyph glyph-name="down" unicode="&#xe80b;" d="M704 454l-173-219c-8-8-23-8-27 0l-173 219c-8 11 0 31 15 31h346c12 0 20-20 12-31z" horiz-adv-x="1000" />

<glyph glyph-name="folder" unicode="&#xe80c;" d="M929 511v-393q0-51-37-88t-88-37h-679q-51 0-88 37t-37 88v536q0 51 37 88t88 37h179q51 0 88-37t37-88v-18h375q51 0 88-37t37-88z" horiz-adv-x="928.6" />

<glyph glyph-name="folder-open" unicode="&#xe80d;" d="M1049 319q0-17-18-37l-187-221q-24-28-67-48t-81-20h-607q-19 0-33 7t-15 24q0 17 17 37l188 221q24 28 67 48t80 20h607q19 0 34-7t15-24z m-192 192v-90h-464q-53 0-110-26t-92-67l-188-221-2-3q0 2-1 7t0 7v536q0 51 37 88t88 37h179q51 0 88-37t37-88v-18h303q52 0 88-37t37-88z" horiz-adv-x="1071.4" />

<glyph glyph-name="trash-empty" unicode="&#xe80e;" d="M286 439v-321q0-8-5-13t-13-5h-36q-8 0-13 5t-5 13v321q0 8 5 13t13 5h36q8 0 13-5t5-13z m143 0v-321q0-8-5-13t-13-5h-36q-8 0-13 5t-5 13v321q0 8 5 13t13 5h36q8 0 13-5t5-13z m142 0v-321q0-8-5-13t-12-5h-36q-8 0-13 5t-5 13v321q0 8 5 13t13 5h36q7 0 12-5t5-13z m72-404v529h-500v-529q0-12 4-22t8-15 6-5h464q2 0 6 5t8 15 4 22z m-375 601h250l-27 65q-4 5-9 6h-177q-6-1-10-6z m518-18v-36q0-8-5-13t-13-5h-54v-529q0-46-26-80t-63-34h-464q-37 0-63 33t-27 79v531h-53q-8 0-13 5t-5 13v36q0 8 5 13t13 5h172l39 93q9 21 31 35t44 15h178q23 0 44-15t30-35l39-93h173q8 0 13-5t5-13z" horiz-adv-x="785.7" />

<glyph glyph-name="group" unicode="&#xe80f;" d="M962 219v-15c0-4-4-12-12-12h-161-4c-16 20-39 39-77 43-35 7-54 15-69 23 7 7 19 11 30 15 46 8 58 23 66 35 7 11 7 23 0 38-8 16-31 43-31 81 0 38 0 104 73 104h8 7c73-4 77-66 73-104 0-38-23-69-30-81-8-15-8-27 0-38 7-12 23-27 65-35 54-4 62-46 62-54 0 0 0 0 0 0z m-708-15c15 15 38 31 69 35 39 7 62 15 73 26-7 8-19 16-34 20-47 7-58 23-66 34-7 12-7 23 0 39 8 15 31 42 31 81 0 38 0 103-73 103h-8-11c-73-3-77-65-73-103 0-39 23-70 30-81 8-16 8-27 0-39-7-11-23-27-65-34-46-8-54-50-54-54 0 0 0 0 0 0v-16c0-3 4-11 12-11h161 8z m454 11c-73 12-96 35-108 54-11 20-11 39 0 62 12 23 50 69 54 131 4 61 0 165-119 169h-16-15c-119-4-123-104-119-166 4-61 38-107 54-130 11-23 11-43 0-62-12-19-35-42-108-54-73-11-85-80-85-88 0 0 0 0 0 0v-23c0-8 8-16 16-16h257 258c8 0 15 8 15 16v23c0 0 0 0 0 0-3 4-11 73-84 84z" horiz-adv-x="1000" />

<glyph glyph-name="remove" unicode="&#xe810;" d="M724 112q0-22-15-38l-76-76q-16-15-38-15t-38 15l-164 165-164-165q-16-15-38-15t-38 15l-76 76q-16 16-16 38t16 38l164 164-164 164q-16 16-16 38t16 38l76 76q16 16 38 16t38-16l164-164 164 164q16 16 38 16t38-16l76-76q15-15 15-38t-15-38l-164-164 164-164q15-15 15-38z" horiz-adv-x="785.7" />

<glyph glyph-name="fork" unicode="&#xe811;" d="M792 654c0 58-46 100-100 100-57 0-100-46-100-100 0-35 20-65 47-85-12-84-70-123-127-142-58 15-116 54-127 142 27 20 46 50 46 85 0 58-46 100-100 100s-108-42-108-100c0-39 23-73 54-89 12-107 77-188 181-226v-162c-31-19-50-50-50-88 0-58 46-101 100-101s100 47 100 101c0 38-19 69-50 88v162c104 38 169 119 181 226 30 20 53 50 53 89z m-465 35c19 0 35-16 35-35s-16-31-35-31-35 12-35 31 16 35 35 35z m181-635c-19 0-35 15-35 35s16 34 35 34c19 0 34-15 34-34s-15-35-34-35z m184 635c20 0 35-16 35-35s-15-31-35-31-34 16-34 35 15 31 34 31z" horiz-adv-x="1000" />

<glyph glyph-name="more" unicode="&#xe812;" d="M546 435h-100c-15 0-27-12-27-27v-100c0-16 12-27 27-27h100c16 0 27 11 27 27v100c0 15-11 27-27 27z m0 307h-100c-15 0-27-11-27-27v-100c0-15 12-26 27-26h100c16 0 27 11 27 26v100c0 16-11 27-27 27z m0-615h-100c-15 0-27-12-27-27v-100c0-15 12-27 27-27h100c16 0 27 12 27 27v100c0 15-11 27-27 27z" horiz-adv-x="1000" />

<glyph glyph-name="search" unicode="&#xe813;" d="M643 386q0 103-73 176t-177 74-177-74-73-176 73-177 177-73 177 73 73 177z m286-465q0-29-22-50t-50-21q-30 0-50 21l-191 191q-100-69-223-69-80 0-153 31t-125 84-84 125-31 153 31 152 84 126 125 84 153 31 153-31 125-84 84-126 31-152q0-123-69-223l191-191q21-21 21-51z" horiz-adv-x="928.6" />

<glyph glyph-name="scissors" unicode="&#xe814;" d="M536 350q14 0 25-11t10-25-10-25-25-10-25 10-11 25 11 25 25 11z m167-36l283-222q16-11 14-31-3-20-19-28l-72-36q-7-4-16-4-10 0-17 4l-385 216-62-36q-4-3-7-3 8-28 6-54-4-43-31-83t-74-69q-74-47-154-47-76 0-124 44-51 47-44 116 4 42 31 82t73 69q74 47 155 47 46 0 84-18 5 8 13 13l68 40-68 41q-8 5-13 12-38-17-84-17-81 0-155 47-46 30-73 69t-31 82q-3 33 8 63t36 52q47 44 124 44 80 0 154-47 46-29 74-68t31-83q2-27-6-54 3-1 7-3l62-37 385 216q7 5 17 5 9 0 16-4l72-36q16-9 19-28 2-20-14-32z m-380 145q26 24 12 61t-59 65q-52 33-107 33-42 0-63-20-26-24-12-60t59-66q51-33 107-33 41 0 63 20z m-47-415q45 28 59 65t-12 60q-22 20-63 20-56 0-107-33-45-28-59-65t12-60q21-20 63-20 55 0 107 33z m99 342l54-33v7q0 20 18 31l8 4-44 26-15-14q-1-2-5-6t-7-7q-1-1-2-2t-2-1z m125-125l54-18 410 321-71 36-429-240v-64l-89-53 5-5q1-1 4-3 2-2 6-7t6-6l15-15z m393-232l71 35-290 228-99-77q-1-2-7-4z" horiz-adv-x="1000" />

<glyph glyph-name="download" unicode="&#xe815;" d="M714 100q0 15-10 25t-25 11-25-11-11-25 11-25 25-11 25 11 10 25z m143 0q0 15-10 25t-26 11-25-11-10-25 10-25 25-11 26 11 10 25z m72 125v-179q0-22-16-37t-38-16h-821q-23 0-38 16t-16 37v179q0 22 16 38t38 16h259l75-76q33-32 76-32t76 32l76 76h259q22 0 38-16t16-38z m-182 318q10-23-8-39l-250-250q-10-11-25-11t-25 11l-250 250q-17 16-8 39 10 21 33 21h143v250q0 15 11 25t25 11h143q14 0 25-11t10-25v-250h143q24 0 33-21z" horiz-adv-x="928.6" />

<glyph glyph-name="doc" unicode="&#xe816;" d="M819 638q16-16 27-42t11-50v-642q0-23-15-38t-38-16h-750q-23 0-38 16t-16 38v892q0 23 16 38t38 16h500q22 0 49-11t42-27z m-248 136v-210h210q-5 17-12 23l-175 175q-6 7-23 12z m215-853v572h-232q-23 0-38 16t-16 37v233h-429v-858h715z" horiz-adv-x="857.1" />

<glyph glyph-name="cog" unicode="&#xe817;" d="M571 350q0 59-41 101t-101 42-101-42-42-101 42-101 101-42 101 42 41 101z m286 61v-124q0-7-4-13t-11-7l-104-16q-10-30-21-51 19-27 59-77 6-6 6-13t-5-13q-15-21-55-61t-53-39q-7 0-14 5l-77 60q-25-13-51-21-9-76-16-104-4-16-20-16h-124q-8 0-14 5t-6 12l-16 103q-27 9-50 21l-79-60q-6-5-14-5-8 0-14 6-70 64-92 94-4 5-4 13 0 6 5 12 8 12 28 37t30 40q-15 28-23 55l-102 15q-7 1-11 7t-5 13v124q0 7 5 13t10 7l104 16q8 25 22 51-23 32-60 77-6 7-6 14 0 5 5 12 15 20 55 60t53 40q7 0 15-5l77-60q24 13 50 21 9 76 17 104 3 16 20 16h124q7 0 13-5t7-12l15-103q28-9 51-20l79 59q5 5 13 5 7 0 14-5 72-67 92-95 4-5 4-12 0-7-4-13-9-12-29-37t-30-40q15-28 23-54l102-16q7-1 12-7t4-13z" horiz-adv-x="857.1" />

<glyph glyph-name="cog-alt" unicode="&#xe818;" d="M500 350q0 59-42 101t-101 42-101-42-42-101 42-101 101-42 101 42 42 101z m429-286q0 29-22 51t-50 21-50-21-21-51q0-29 21-50t50-21 51 21 21 50z m0 572q0 29-22 50t-50 21-50-21-21-50q0-30 21-51t50-21 51 21 21 51z m-215-235v-103q0-6-4-11t-8-6l-87-14q-6-19-18-42 19-27 50-64 4-6 4-11 0-7-4-11-12-17-46-50t-43-33q-7 0-12 4l-64 50q-21-11-43-17-6-60-13-87-4-13-17-13h-104q-6 0-11 4t-5 10l-13 85q-19 6-42 18l-66-50q-4-4-11-4-6 0-12 4-80 75-80 90 0 5 4 10 5 8 23 30t26 34q-13 24-20 46l-85 13q-5 1-9 5t-4 11v104q0 5 4 10t9 6l86 14q7 19 18 42-19 27-50 64-4 6-4 11 0 7 4 12 12 16 46 49t44 33q6 0 12-4l64-50q19 10 43 18 6 60 13 86 3 13 16 13h104q6 0 11-4t6-10l13-85q19-6 42-17l65 49q5 4 12 4 6 0 11-4 81-75 81-90 0-4-4-10-7-9-24-30t-25-34q13-27 19-46l85-12q6-2 9-6t4-11z m357-298v-78q0-9-83-17-6-15-16-29 28-63 28-77 0-2-2-4-68-40-69-40-5 0-26 27t-29 37q-11-1-17-1t-17 1q-7-11-29-37t-25-27q-1 0-69 40-3 2-3 4 0 14 29 77-10 14-17 29-83 8-83 17v78q0 9 83 18 7 16 17 29-29 63-29 77 0 2 3 4 2 1 19 11t33 19 17 9q4 0 25-26t29-38q12 1 17 1t17-1q28 40 51 63l4 1q2 0 69-39 2-2 2-4 0-14-28-77 9-13 16-29 83-9 83-18z m0 572v-78q0-9-83-18-6-15-16-29 28-63 28-77 0-2-2-4-68-39-69-39-5 0-26 26t-29 38q-11-1-17-1t-17 1q-7-12-29-38t-25-26q-1 0-69 39-3 2-3 4 0 14 29 77-10 14-17 29-83 9-83 18v78q0 9 83 17 7 16 17 29-29 63-29 77 0 2 3 4 2 1 19 11t33 19 17 9q4 0 25-26t29-37q12 1 17 1t17-1q28 39 51 62l4 1q2 0 69-39 2-2 2-4 0-14-28-77 9-13 16-29 83-8 83-17z" horiz-adv-x="1071.4" />

<glyph glyph-name="eye" unicode="&#xe819;" d="M929 314q-85 132-213 197 34-58 34-125 0-103-73-177t-177-73-177 73-73 177q0 67 34 125-128-65-213-197 75-114 187-182t242-68 243 68 186 182z m-402 215q0 11-8 19t-19 7q-70 0-120-50t-50-119q0-11 8-19t19-8 19 8 8 19q0 48 34 82t82 34q11 0 19 8t8 19z m473-215q0-19-11-38-78-129-210-206t-279-77-279 77-210 206q-11 19-11 38t11 39q78 128 210 205t279 78 279-78 210-205q11-20 11-39z" horiz-adv-x="1000" />

<glyph glyph-name="eye-off" unicode="&#xe81a;" d="M310 105l43 79q-48 35-76 88t-27 114q0 67 34 125-128-65-213-197 94-144 239-209z m217 424q0 11-8 19t-19 7q-70 0-120-50t-50-119q0-11 8-19t19-8 19 8 8 19q0 48 34 82t82 34q11 0 19 8t8 19z m202 106q0-4 0-5-59-105-176-316t-176-316l-28-50q-5-9-15-9-7 0-75 39-9 6-9 16 0 7 25 49-80 36-147 96t-117 137q-11 17-11 38t11 39q86 131 212 207t277 76q50 0 100-10l31 54q5 9 15 9 3 0 10-3t18-9 18-10 18-10 10-7q9-5 9-15z m21-249q0-78-44-142t-117-91l157 280q4-25 4-47z m250-72q0-19-11-38-22-36-61-81-84-96-194-149t-234-53l41 74q119 10 219 76t169 171q-65 100-158 164l35 63q53-36 102-85t81-103q11-19 11-39z" horiz-adv-x="1000" />

<glyph glyph-name="cancel-circled2" unicode="&#xe81b;" d="M612 248l-81-82q-6-5-13-5t-13 5l-76 77-77-77q-5-5-13-5t-12 5l-82 82q-6 6-6 13t6 13l76 76-76 77q-6 5-6 12t6 13l82 82q5 5 12 5t13-5l77-77 76 77q6 5 13 5t13-5l81-82q6-5 6-13t-6-12l-76-77 76-76q6-6 6-13t-6-13z m120 102q0 83-41 152t-110 111-152 41-153-41-110-111-41-152 41-152 110-111 153-41 152 41 110 111 41 152z m125 0q0-117-57-215t-156-156-215-58-216 58-155 156-58 215 58 215 155 156 216 58 215-58 156-156 57-215z" horiz-adv-x="857.1" />

<glyph glyph-name="cancel-circled" unicode="&#xe81c;" d="M641 224q0 14-10 25l-101 101 101 101q10 11 10 25 0 15-10 26l-51 50q-10 11-25 11-15 0-25-11l-101-101-101 101q-11 11-25 11-16 0-26-11l-50-50q-11-11-11-26 0-14 11-25l101-101-101-101q-11-11-11-25 0-15 11-26l50-50q10-11 26-11 14 0 25 11l101 101 101-101q10-11 25-11 15 0 25 11l51 50q10 11 10 26z m216 126q0-117-57-215t-156-156-215-58-216 58-155 156-58 215 58 215 155 156 216 58 215-58 156-156 57-215z" horiz-adv-x="857.1" />

<glyph glyph-name="plus" unicode="&#xe81d;" d="M786 439v-107q0-22-16-38t-38-15h-232v-233q0-22-16-37t-38-16h-107q-22 0-38 16t-15 37v233h-232q-23 0-38 15t-16 38v107q0 23 16 38t38 16h232v232q0 22 15 38t38 16h107q23 0 38-16t16-38v-232h232q23 0 38-16t16-38z" horiz-adv-x="785.7" />

<glyph glyph-name="plus-circled" unicode="&#xe81e;" d="M679 314v72q0 14-11 25t-25 10h-143v143q0 15-11 25t-25 11h-71q-15 0-25-11t-11-25v-143h-143q-14 0-25-10t-10-25v-72q0-14 10-25t25-10h143v-143q0-15 11-25t25-11h71q15 0 25 11t11 25v143h143q14 0 25 10t11 25z m178 36q0-117-57-215t-156-156-215-58-216 58-155 156-58 215 58 215 155 156 216 58 215-58 156-156 57-215z" horiz-adv-x="857.1" />

<glyph glyph-name="minus-circled" unicode="&#xe81f;" d="M679 314v72q0 14-11 25t-25 10h-429q-14 0-25-10t-10-25v-72q0-14 10-25t25-10h429q14 0 25 10t11 25z m178 36q0-117-57-215t-156-156-215-58-216 58-155 156-58 215 58 215 155 156 216 58 215-58 156-156 57-215z" horiz-adv-x="857.1" />

<glyph glyph-name="minus" unicode="&#xe820;" d="M786 439v-107q0-22-16-38t-38-15h-678q-23 0-38 15t-16 38v107q0 23 16 38t38 16h678q23 0 38-16t16-38z" horiz-adv-x="785.7" />

<glyph glyph-name="info-circled" unicode="&#xe821;" d="M571 82v89q0 8-5 13t-12 5h-54v286q0 8-5 13t-13 5h-178q-8 0-13-5t-5-13v-89q0-8 5-13t13-5h53v-179h-53q-8 0-13-5t-5-13v-89q0-8 5-13t13-5h250q7 0 12 5t5 13z m-71 500v89q0 8-5 13t-13 5h-107q-8 0-13-5t-5-13v-89q0-8 5-13t13-5h107q8 0 13 5t5 13z m357-232q0-117-57-215t-156-156-215-58-216 58-155 156-58 215 58 215 155 156 216 58 215-58 156-156 57-215z" horiz-adv-x="857.1" />

<glyph glyph-name="upload" unicode="&#xe822;" d="M714 29q0 14-10 25t-25 10-25-10-11-25 11-25 25-11 25 11 10 25z m143 0q0 14-10 25t-26 10-25-10-10-25 10-25 25-11 26 11 10 25z m72 125v-179q0-22-16-38t-38-16h-821q-23 0-38 16t-16 38v179q0 22 16 38t38 15h238q12-31 39-51t62-20h143q34 0 61 20t40 51h238q22 0 38-15t16-38z m-182 361q-9-22-33-22h-143v-250q0-15-10-25t-25-11h-143q-15 0-25 11t-11 25v250h-143q-23 0-33 22-9 22 8 39l250 250q10 10 25 10t25-10l250-250q18-17 8-39z" horiz-adv-x="928.6" />

<glyph glyph-name="home" unicode="&#xe823;" d="M888 336q16-16 11-27t-27-11l-84 0 0-310q0-14-1-21t-8-13-23-6l-204 0 0 310-204 0 0-310-194 0q-28 0-35 10t-7 30l0 310-84 0q-22 0-27 11t11 27l400 402q16 16 38 16t38-16z" horiz-adv-x="900" />

<glyph glyph-name="git" unicode="&#xe82a;" d="M929 844h-858c-36 0-65-30-65-65v-857c0-36 30-65 65-65h857c36 0 65 30 65 65v857c1 35-29 65-64 65z m-729-549c4-11 9-20 14-27 6-8 14-14 22-18 9-4 19-6 29-6 9 0 16 1 24 2 7 2 14 4 20 7l6 51h-27c-4 0-8 1-10 4-2 1-3 5-3 7l5 39h105l-16-131c-8-7-16-12-25-15-9-4-18-8-28-10-10-3-18-5-30-7-10-1-21-2-33-2-20 0-38 4-54 11-16 8-30 18-41 30-12 13-20 28-27 45-6 18-10 36-10 56 0 18 3 34 7 50 3 17 10 30 17 44 8 14 16 25 26 36 10 12 22 20 34 28 13 7 26 14 41 17 15 4 30 7 47 7 13 0 25-2 36-4 11-3 21-6 29-10 8-4 16-9 22-14 6-5 13-11 18-16l-20-31c-4-5-9-8-14-9-5-1-10 0-16 4-5 3-10 6-14 8-5 3-9 5-14 7-5 1-10 2-15 3-5 2-11 2-17 2-14 0-27-3-38-9-11-6-21-14-29-25-8-10-15-24-18-38-5-15-7-31-7-48-1-14 2-27 4-38z m336-102h-71l39 315h71l-39-315z m343 258h-80l-33-258h-70l32 258h-80l7 57h231l-7-57z" horiz-adv-x="1000" />

<glyph glyph-name="hg" unicode="&#xe82d;" d="M927 841h-853c-36 0-65-29-65-65v-853c0-36 29-65 65-65h853c36 0 65 29 65 65v853c0 36-29 65-65 65z m-483-648h-70l16 133h-113l-17-133h-70l39 313h70l-16-132h113l16 132h71l-39-313z m177 101c3-11 8-20 14-27 7-8 14-14 23-18 8-4 18-6 28-6 9 0 16 1 23 3 7 1 14 3 20 6l6 51h-27c-4 0-7 1-9 3-3 3-3 6-3 9l5 39h104l-16-131c-8-6-16-11-25-15-9-5-18-8-27-11-9-2-19-4-30-6-10-1-21-2-33-2-19 0-37 4-53 11-16 7-30 17-41 29-11 13-20 28-26 45-7 17-10 35-10 55 0 17 2 34 6 50 4 15 10 30 17 43 7 14 16 26 26 36 10 11 22 20 34 28 13 7 27 13 41 17 14 4 30 7 46 7 13 0 25-2 36-4 11-3 20-6 29-10 8-4 16-9 23-14 7-5 13-11 18-17l-23-28c-4-5-8-8-13-9-5-1-11 0-16 3-5 4-10 7-14 9-5 3-9 5-14 6-4 2-9 3-14 4-5 1-11 1-17 1-14 0-27-3-38-8-11-6-21-14-29-25-8-10-15-23-19-38-5-15-7-31-7-49 0-13 2-26 5-37z" horiz-adv-x="1000" />

<glyph glyph-name="svn" unicode="&#xe82e;" d="M933 841h-852c-36 0-65-29-65-65v-853c0-36 29-65 65-65h852c36 0 66 29 66 65v853c0 36-30 65-66 65z m-765-438c3-4 7-7 13-10 5-3 11-6 18-8 7-3 14-5 21-8 7-3 14-6 21-10 7-4 13-9 18-14 5-6 10-13 13-20 3-8 5-18 5-29 0-16-3-30-8-44-6-14-14-26-24-37-10-10-22-18-37-24-15-7-31-10-49-10-9 0-18 1-27 3s-18 5-27 9c-8 4-16 8-23 13-7 5-13 10-18 17l25 32c2 3 4 5 7 6 3 2 6 3 9 3 4 0 8-2 12-4 3-3 8-6 12-10 5-3 10-6 16-9 6-3 14-4 23-4 13 0 23 3 30 10 7 7 10 18 10 32 0 6-1 12-4 16-4 4-8 7-13 10-5 3-11 6-18 8-7 2-14 5-21 7-7 3-14 6-21 9-6 4-12 8-18 14-5 6-9 13-12 21-3 8-5 18-5 30 0 14 3 28 8 40 5 13 12 25 22 35 10 9 22 17 36 23 14 6 29 9 47 9 9 0 17-1 26-3s16-4 23-8c7-3 14-7 20-11 6-5 11-10 15-15l-21-29c-2-3-5-6-7-7-3-2-6-3-9-3-3 0-7 1-10 3-3 3-7 5-11 8-4 2-9 4-14 7-5 2-12 3-19 3-6 0-12-1-17-3-5-2-9-4-12-8-4-3-6-7-8-11-1-5-2-10-2-15 0-5 2-10 5-14z m312-210h-64l-77 313h57c6 0 10-1 14-4 4-3 6-6 7-11l32-173c2-7 4-14 6-23 1-8 3-17 4-26 3 9 6 18 9 26 4 9 7 16 11 23l73 173c1 2 2 4 4 6 2 2 4 3 6 5 2 1 4 2 7 3 3 1 5 1 8 1h57l-154-313z m423 0h-37c-5 0-10 1-13 2-4 2-7 5-10 9l-109 194c-1-4-1-8-1-12-1-4-1-7-1-10l-22-183h-62l39 313h37c3 0 6 0 8 0 2 0 4-1 5-1 2-1 3-2 4-4s3-3 5-5l110-194c0 5 0 10 1 14 0 5 1 9 1 13l21 177h62l-38-313z" horiz-adv-x="1000" />

<glyph glyph-name="comment-add" unicode="&#xe82f;" d="M952 258v317c0 7 0 13 0 20-1 12-4 24-8 36-7 22-20 43-37 59-16 17-36 30-58 37-12 4-25 7-37 8-7 1-13 1-19 1h-576c-13 0-26 0-38-2-13-2-25-5-36-10-22-9-41-23-57-40-15-18-27-39-33-62-3-12-5-25-5-38-1-13 0-26 0-39v-557c0-9 5-17 13-21 6-3 15-3 21 0 3 1 5 3 7 5 2 2 4 5 7 7 4 5 9 9 14 14l28 28c9 10 19 19 28 29 9 9 19 18 28 27 4 5 8 9 14 10 2 1 5 1 8 1h567c13 0 25 0 38 2 24 4 47 13 66 27 19 13 35 31 46 51 12 22 19 46 19 71 1 6 0 13 0 19z m-69 307v-317c0-7 0-13 0-19-1-6-3-13-5-18-4-10-9-20-16-28-15-17-37-27-59-28-7 0-13 0-19 0h-576c-7 0-13 0-20 0-3 0-6 0-9-1-3-1-5-2-7-4-2-2-4-4-6-6-3-2-5-4-7-7-5-4-10-9-14-14-10-9-19-18-28-28v485c0 12 2 24 7 35 4 10 10 19 18 27 16 16 38 25 60 25h590c6 0 12 0 18-1 22-3 42-15 56-33 7-9 12-20 15-31 1-5 2-12 2-18 1-6 0-13 0-19z m-214-117h-131c-4 0-11 8-11 12v126c0 8-8 16-12 16h-50c-7 0-15-8-15-12v-130c0-4-8-12-12-12h-126c-8 0-16-8-16-11v-50c0-8 8-16 12-16h127c7 0 15-7 15-11v-127c0-8 8-15 11-15h50c8 0 16 7 16 11v127c0 8 7 15 11 15h127c8 0 15 8 15 12v50c0 7-7 15-11 15z" horiz-adv-x="1000" />

<glyph glyph-name="comment-toggle" unicode="&#xe830;" d="M798 736h-596c-85 0-154-69-154-155v-593c0-19 22-29 36-20 2 1 5 3 7 5l109 109c2 2 5 4 8 5 2 1 4 1 6 1h584c85 0 154 69 154 155v338c0 86-69 155-154 155z m-680-639v484c0 47 38 85 86 85h476c-86-84-504-511-509-515l-53-54z" horiz-adv-x="1000" />

<glyph glyph-name="rhodecode" unicode="&#xe831;" d="M175 633c-2-4-3-8-4-12-3-10-6-20-9-30-3-13-7-25-11-38-3-11-6-23-10-35-2-7-4-15-6-22-1-1-1-2-1-4 0 0 0 0 0 0 0-1 1-2 1-2 2-7 5-14 7-21 4-11 8-22 12-33 4-12 9-25 13-37 4-11 8-23 12-34 3-7 5-14 7-21 1-1 1-2 2-3 0-1 1-1 1-2 4-6 8-12 11-17 7-10 13-19 19-29 7-11 14-22 22-33 6-10 13-21 20-31 5-7 9-15 14-22 1-2 3-4 4-5 0-1 1-1 1-2 3-3 6-5 8-8 7-6 13-12 19-19 9-8 17-16 25-24 10-10 19-19 29-28 9-9 18-18 27-27 8-8 16-15 23-23 5-5 11-10 16-15 1-1 3-3 5-5 7-5 14-10 21-15 11-8 21-15 31-23 4-2 7-5 11-7 0-1 1-2 2-2 0 0 0-1 1 0 7 3 14 7 21 11 11 6 23 11 34 17 6 4 12 7 19 10 0 0 0 1 1 1 1 2 2 3 3 5 4 5 8 10 13 15 6 8 12 16 18 24 8 9 15 19 23 28 8 11 16 21 24 31 8 11 16 21 24 31 8 10 15 19 23 28 6 8 12 16 18 24 4 5 8 10 12 15 2 2 3 3 4 5 0 0 0 0 0 0-1 1-2 1-3 1-3 0-6 1-9 2-5 1-10 2-15 3-6 2-13 4-20 5-8 3-16 5-24 7-9 3-19 6-28 9-10 3-21 7-31 11-12 4-23 8-34 13-12 5-24 10-36 15-13 6-26 12-38 18-13 7-26 14-39 21-13 7-27 15-39 23-14 9-27 17-40 27-13 9-26 19-39 29-13 11-25 22-37 33-13 11-25 23-36 36-12 13-23 26-34 40-11 14-21 28-31 43-9 15-19 31-27 47 0 1 0 1 0 1z m-3 3c-1-5-3-9-4-14-3-10-7-21-10-32-4-12-8-25-12-37-3-10-6-20-9-30-1-3-2-6-3-8 0-1 0-2 0-2 1-5 3-10 5-15 3-10 6-20 10-30 4-12 8-24 12-37 4-12 8-24 12-36 3-9 6-18 9-26 1-3 1-5 2-8 0 0 1-1 1-2 2-4 5-8 7-12 5-10 10-19 15-28 6-11 12-23 19-34 6-11 12-22 18-33 4-8 8-15 12-23 1-2 2-4 4-6 4-5 8-9 13-14 7-8 15-16 23-24 9-10 18-20 26-29 9-9 17-18 25-26 5-6 10-11 15-17 2-1 3-3 5-5 5-5 11-11 17-17 9-8 17-17 26-26 9-9 18-18 27-27 7-7 14-14 21-21 2-2 3-3 5-5 0 0 1-1 1-1 0 0 1 0 1 0 11 2 22 3 32 5 9 1 17 2 26 3 0 0 1 1 1 1 1 1 2 3 4 4 4 5 9 10 13 15 7 8 14 15 20 22 9 9 17 18 25 27 9 10 18 20 27 30 8 9 17 19 26 29 8 9 16 17 24 26 7 7 13 15 20 22 4 5 8 9 13 14 1 1 2 2 3 3 0 1 1 1 1 1 0 1-3 1-3 1-3 1-7 2-10 3-4 2-9 3-14 5-6 2-13 4-19 6-8 3-16 6-24 9-9 3-18 7-27 11-10 4-20 8-30 13-11 5-22 10-33 16-12 5-23 11-35 18-12 6-24 13-36 20-12 8-25 16-37 24-13 8-25 17-37 26-13 10-25 19-38 29-12 11-24 21-36 33-12 11-24 23-35 35-11 13-22 25-33 39-10 13-21 27-30 42-10 15-19 30-27 45-9 16-17 32-24 48z m-2 10c-1-4-2-8-3-11-1-10-3-19-5-29-2-12-5-25-7-37-3-13-5-26-8-39-1-10-3-20-5-30-1-5-2-10-3-15 0-1 0-1 0-2 1-3 2-5 3-8 3-9 7-19 10-29 4-12 9-25 13-37 4-11 8-22 11-33 2-5 4-11 6-16 0-1 1-2 1-2 1-3 2-5 4-7 4-9 8-18 13-27 6-12 11-23 17-35 6-11 11-22 17-33 3-7 7-14 11-21 0-2 1-3 1-4 1-1 2-1 2-2 5-6 9-11 14-17 8-9 15-18 22-27 9-10 17-20 26-30 7-9 15-18 22-27 5-6 10-11 15-17 0-1 1-2 2-3 0 0 0 0 0 0 1-1 2-1 3-2 7-4 14-9 21-14 10-7 21-14 31-22 11-7 21-14 31-20 6-4 12-9 18-13 3-2 7-5 10-8 10-8 19-16 29-24 7-5 13-11 20-17 1 0 1 0 1 1 1 1 2 2 3 3 4 4 8 8 12 13 6 6 12 13 18 20 8 8 16 17 23 25 9 10 18 19 26 29 9 9 18 19 27 29 9 9 18 19 26 28 8 9 16 17 23 26 6 6 13 13 19 20 4 4 7 8 11 12 1 2 3 3 4 4 0 0 0 0 0 0 0 0 0 0 0 0 0 0-3 1-3 1-3 1-6 2-9 2-5 2-10 4-15 5-6 2-12 5-18 7-8 3-16 6-24 9-8 4-17 8-26 12-10 4-20 9-30 13-11 6-22 11-32 16-12 6-23 13-35 19-12 7-23 14-35 21-13 8-25 16-37 24-12 8-25 17-37 26-12 9-24 19-36 29-13 10-25 21-36 32-12 11-24 22-35 34-12 12-22 25-33 38-11 13-21 26-30 40-10 14-19 29-28 44-9 15-17 30-24 46-4 10-8 20-12 30z m696 21c-2 4-5 7-9 9-5 3-11 5-16 8-11 4-23 9-34 13-23 8-47 14-71 20-24 6-49 12-74 17-25 6-50 10-76 15-25 4-50 8-75 10-13 1-26 1-39 0-6-1-13-2-19-3-6-1-13-2-19-3-26-4-51-9-77-14-25-5-50-10-75-16-25-5-49-12-74-20-12-4-24-9-36-13-6-3-11-5-17-8-3-1-6-2-9-3-3-1-5-2-8-4-4-2-7-5-10-9-1-2-2-4-3-7-1-3-2-6-3-9-4-11-7-24-9-36-5-24-7-49-6-74 0-13 1-25 3-38 1-12 3-25 5-37 5-25 12-50 20-74 4-12 8-24 13-36 4-11 10-22 15-33 10-21 21-42 34-62 12-20 25-39 39-58 14-19 28-37 43-55 16-18 33-36 50-54 17-18 34-35 52-52 18-17 36-33 55-49 10-7 19-15 28-22 10-8 19-15 28-23 2-2 5-4 7-7 0 0 1-1 1-1 0 0 1 0 1 0 0 0 1 0 2 0 4 4 9 8 14 11 9 8 19 15 28 23 18 15 36 31 54 47 18 16 35 32 52 49 17 16 33 34 49 51 16 18 32 37 47 56 14 18 28 38 41 57 13 20 25 40 36 61 11 21 21 43 30 65 9 22 17 45 23 68 6 23 11 47 13 70 3 24 3 49 2 73 0 3-1 6-2 9 0 3-1 6-2 9-1 6-2 12-3 18-3 11-5 22-8 33-4 9-7 19-11 28-2 5 13-29 0 0z m-51-210c-7-25-15-49-26-73-9-22-19-44-30-64-12-21-24-40-37-59-13-19-27-38-42-56-15-18-31-36-47-54-17-18-34-36-52-53-18-17-37-34-56-50-9-7-19-15-28-23-1 0-2-1-2-1-1 0-2 0-2 0-1 0-2 1-2 1 0 0-1 1-1 1-2 1-3 3-4 4-4 3-9 7-14 11-2 1-4 3-7 5-2 2-4 4-6 6-5 4-9 8-14 13-9 8-18 17-27 25-10 9-18 18-27 27-4 4-8 9-13 13-4 4-8 9-12 13-17 17-33 35-49 53-15 18-30 37-44 57-14 20-27 40-38 61-12 21-23 42-32 64-10 22-18 45-25 67-2 6-4 12-5 19-1 6-2 12-3 19-2 13-4 26-4 39-1 13-2 26-1 39 0 12 1 25 3 37 0 4 0 7 1 10 0 1 0 3 0 5 1 1 1 3 1 4 0 3 1 5 2 7 0 2 0 3 0 4 0 1 1 2 2 3 1 0 2 1 3 2 0 0 1 0 1 1 1 0 2 0 3 1 3 1 6 2 9 3 6 2 12 5 18 7 23 8 47 16 72 23 12 3 24 6 37 9 6 1 12 2 18 4 7 1 13 2 19 4 26 5 51 9 77 13 13 1 26 3 39 5 3 0 7 1 10 1 1 1 3 1 4 1 2 0 3 0 4 0 6 0 12 0 17-1 1 0 2-1 4-1 1 0 3-1 4-1 3 0 6-1 9-1 7-1 13-2 19-3 13-2 25-4 38-6 25-4 51-8 76-13 25-6 50-12 75-19 12-4 24-8 37-12 6-2 12-4 18-6 3-1 6-2 9-3 1-1 3-1 4-2 1 0 1 0 2 0 1-1 2-1 2-1 2-2 3-2 4-4 1-1 1-1 1-2 0-1 0-2 0-2 1-1 1-2 1-3 2-6 3-13 4-19 1-7 2-13 3-20 0-3 0-6 0-9 0-1 0-2 0-2 0-1 0-2 0-3 1-1 1-3 1-5 5-23 7-48 5-72-1-13-3-26-6-38-8-29 8 35 0 0z m-197 0c-2 4-3 9-5 13 0 1 0 1 0 2-1 0 0 1-1 1 0 1 0 2 0 2 0 1-1 2-1 3-1 2-3 4-4 5-2 2-5 4-7 4 2 2 4 3 7 5 1 1 2 2 3 2 1 1 2 1 2 2 0 1 0 1 0 2 1 0 1 1 2 1 0 1 1 2 1 4 0 2 0 4 0 6 0 3 0 5 0 7 0 3 0 5-1 7-1 6-4 10-8 14-1 2-3 3-5 4-3 2-5 4-8 5-3 1-6 2-9 3-3 0-5 0-7 0-3 0-6 0-8 0-13 0-25 0-37 0-5 0-10 0-14 0-1 0-2 0-3 0 0 0 0-4 0-5 0-3 0-6 0-9 0-1 0-2 0-3 0-1 0-1 1-1 1 0 12 0 12 0 0-8 0-16 0-24 0-13 0-25 0-38 0-4 0-7 0-11 0 0 0-1 0-1-3 0-5 0-8 0-1 0-2 0-4 0 0 0-1 0-1-1 0-2 0-4 0-6 0-1 0-14 0-14 10 0 19 0 29 0 5 0 11 0 16 0 1 0 3 0 4 0 0 0 0 3 0 3 0 6 0 11 0 17 0 1 0 1-1 1-1 0-2 0-4 0-1 0-3 0-4 0 0 0-1-1-1 0 0 5 0 10 0 15 0 2 0 5 0 8 0 1 0 1 0 2 0 0 0 0 1 0 2 0 5 0 8 0 2 0 4 0 6 0 1 0 3 0 4 0 1 0 2-1 3-2 1-1 2-2 3-3 0-1 0-1 0-2 0-2 1-3 1-4 1-1 1-2 2-3 0-1 0-1 0-1 0-1 0-2 0-2 1-6 2-12 3-17 1-3 1-5 2-8 0 0 0-1 0-1 0 0 0 0 0 0 11 0 21 0 32 0 0 0 1 0 1 0 0 0 0 0 0 0 0 3 0 5 0 8 0 5 0 10 0 15 0 0 0 0 0 0-1-2-1-4-2-5z m-26 53c0-2-3-3-4-4-1 0-1-1-1-1 0 0-1 0-1 0 0 0-1 0-1 0-1-1-1-2-2-2-1 0-2 0-3 0-2 0-4 0-5 0-1 0-2 0-2 0-3 0-7 0-10 0 0 0-4 0-4 0 0 9 0 19 0 28 0 0 13 0 14 0 4 0 8 0 12-1 1 0 3-1 4-2 1 0 2-1 3-2 1-2 2-4 3-6 0-1 0-1 0-2-1-1-1-1-1-2-1-1-1-1-1-2-1-1-1-2-1-4z m131-53c0 9 0 18 0 27 0 9-2 18-8 24-7 7-19 8-28 7-2 0-4 0-6-1-1 0-1-1-2-2-1 0-2 0-2-1-3-1-6-3-8-6 0 9 0 18 0 27 0 6 0 12 0 18 0 2 0 3 0 5 0 1 0 1 0 1-11 0-22 0-32 0-1 0-3 0-4 0 0 0 0-4 0-4 0-5 0-11 0-16 0 0 1 0 1 0 1 0 3 0 4 0 3 0 5 0 8 0 0 0 0-5 0-6 0-11 0-23 0-34 0-11 0-22 0-33 0-1 0-2 0-3 0-1 0-1-1-1-3 0-6 0-9 0-1 0-2 0-3 0 0 0 0-1 0-1 0-6 0-11 0-17 0-1 0-1 0-2 0 0 0 0 0 0 2 0 3 0 4 0 12 0 24 0 36 0 0 0 9 0 9 0 0 5 0 10 0 15 0 1 0 3 0 5 0 0-6 0-7 0 0 0-6 0-6 0 0 1 0 3 0 4 0 6 0 12 0 18 0 3 0 5 0 7 0 1 0 1 0 2 0 0 1 1 2 2 1 1 2 2 3 2 1 1 1 1 2 1 1 0 1 0 1 1 2 1 3 1 4 1 3 1 5 0 7-1 1-1 2-2 3-3 1-1 2-2 2-3 1-2 1-4 1-6 0-3 0-7 0-11 0-11 0-22 0-33 0-1 0-2 1-2 1 0 3 0 5 0 6 0 12 0 19 0 3 0 7 0 11 0 0 0 0 14 0 15 0 2 0 4 0 6-2-1-5-2-7-2z m7 122c-2 0-5 0-7 0-1 0-2 0-3 0 0 0 0 0 0 0-3-5-7-10-10-14-1-2-3-5-4-7 0 0-1-1-1-2 0 0 0-1 0-1 0-1 0-4 0-4 0 0 1 0 2 0 3 0 5 0 8 0 3 0 5 0 8 0 0 0 0-1 0-1 0-1 0-3 0-4 0-2 0-3 0-4 0-1 0-1 1-1 1 0 3 0 4 0 1 0 2 0 2 0 0 3 0 6 0 8 0 1 0 2 1 2 1 0 2 0 4 0 0 0 0 0 0 0 0 1 0 1 0 2 0 0 0 3 0 3-1 0-2 0-3 0-1 0-2 0-2 1 0 7 0 15 0 22z m-7-15c0-1 0-2 0-4 0-1 0-1 0-2 0 0 0-1 0-2 0 0-1 0-1 0-1 0-2 0-3 0-1 0-3 0-4 0 1 2 3 4 4 6 1 1 1 2 2 3 1 2 2 4 2 7 0-3 0-5 0-8z m41-2c-3 2-8 2-11 2-1 0-2 0-2 0 0 0 0 1 0 1 0 2 0 3 0 4 0 0 13 0 14 0 1 0 1 0 1 1 0 1 0 2 0 4 0 1 0 2 0 3 0 0-1 0-1 0-6 0-11 0-17 0-1 0-1 0-2 0 0 0 0-1 0-1-1-2-1-4-1-6-1-5-1-9-2-14 4 0 9 1 12-1 3-1 4-4 4-7-1-4-5-4-7-4-2 0-9-1-9 2-1-2-1-5-2-8 1 0 3-1 5-1 2-1 5-1 7-1 4 0 8 2 11 5 2 3 2 7 2 11 0 2 0 5 0 7 0 1-1 2-2 3 0 0 0 0 0 0-3 2 2 0 0 0z" horiz-adv-x="1000" />

<glyph glyph-name="up" unicode="&#xe832;" d="M687 254l-173 217c-8 9-22 9-29 0l-173-217c-9-12-1-29 15-29h345c16 0 24 17 15 29z" horiz-adv-x="1000" />

<glyph glyph-name="merge" unicode="&#xe833;" d="M200 110c0-72 58-131 130-131s130 59 130 131c0 45-24 86-60 109 18 139 133 179 202 190v-301c-38-23-65-64-65-112 0-72 59-130 130-130s130 58 130 130c0 48-26 89-65 112v487c39 23 65 64 65 112 0 72-58 130-130 130s-130-58-130-130c0-48 27-89 65-112v-55c-60-8-162-32-238-108-54-54-86-124-94-208-42-22-70-65-70-114z m468-158c-24 0-44 20-44 43s20 44 44 44c24 0 43-20 43-44s-19-43-43-43z m0 798c24 0 43-19 43-43s-20-43-43-43c-24 0-44 19-44 43s20 43 44 43z m-338-684c-24 0-43 20-43 43s19 44 43 44c24 0 43-20 43-44s-19-43-43-43z" horiz-adv-x="1000" />

<glyph glyph-name="spin-alt" unicode="&#xe834;" d="M498 850c-114 0-228-39-320-116l0 0c173 140 428 130 588-31 134-134 164-332 89-495-10-29-5-50 12-68 21-20 61-23 84 0 3 3 12 15 15 24 71 180 33 393-112 539-99 98-228 147-356 147z m-409-274c-14 0-29-5-39-16-3-3-13-15-15-24-71-180-34-393 112-539 185-185 479-195 676-31l0 0c-173-140-428-130-589 31-134 134-163 333-89 495 11 29 6 50-12 68-11 11-27 17-44 16z" horiz-adv-x="1001" />

<glyph glyph-name="spin" unicode="&#xe838;" d="M462 850c-6 0-11-5-11-11l0-183 0 0c0-6 5-11 11-11l69 0c1 0 1 0 1 0 7 0 12 5 12 11l0 183 0 0c0 6-5 11-12 11l-69 0c0 0 0 0-1 0z m250-47c-4 1-8-2-10-5l-91-158 0 0c-4-6-2-13 4-16l60-34c0-1 0-1 0-1 6-3 13-1 16 4l91 158c3 6 2 13-4 16l-61 35c-1 1-3 1-5 1z m-428-2c-2 0-4-1-6-2l-61-35c-5-3-7-10-4-16l91-157c0 0 0 0 0 0 3-6 10-8 16-5l61 35c5 4 7 11 4 16l-91 157c0 1 0 1 0 1-2 4-6 6-10 6z m620-163c-2 0-4 0-6-1l-157-91c0 0 0 0 0 0-6-3-8-10-5-16l35-61c4-5 11-7 16-4l157 91c1 0 1 0 1 0 6 3 7 11 4 16l-35 61c-2 4-6 6-10 5z m-810-4c-5 0-9-2-11-6l-35-61c-3-5-1-12 4-15l158-91 0 0c6-4 13-2 16 4l35 60c0 0 0 0 0 0 3 6 1 13-4 16l-158 91c-2 1-4 2-5 2z m712-235l0 0c-6 0-11-5-11-11l0-69c0-1 0-1 0-1 0-7 5-12 11-12l183 0 0 0c6 0 11 5 11 12l0 69c0 0 0 0 0 1 0 6-5 11-11 11l-183 0z m-794-5l0 0c-7 0-12-5-12-12l0-69c0 0 0 0 0-1 0-6 5-11 12-11l182 0 0 0c6 0 11 5 11 11l0 69c0 1 0 1 0 1 0 7-5 12-11 12l-182 0z m772-153c-4 0-8-2-10-6l-34-60c-1 0-1 0-1 0-3-6-1-13 4-16l158-91c6-3 13-1 16 4l35 61c3 5 1 12-4 15l-158 92 0 0c-2 1-4 1-6 1z m-566-5c-1 0-3 0-5-1l-157-91c0 0-1 0-1 0-5-3-7-10-4-16l35-61c3-5 10-7 16-4l157 91c0 0 0 0 0 0 6 3 8 10 5 16l-35 61c-3 3-7 6-11 5z m468-121c-2 0-4 0-6-1l-61-35c-5-4-7-11-4-16l91-157c0-1 0-1 0-1 3-6 11-7 16-4l61 35c5 3 7 10 4 16l-91 157c0 0 0 0 0 0-2 4-6 6-10 6z m-367-2c-4 0-8-2-10-6l-91-158c-3-6-1-13 4-16l61-35c5-3 12-1 15 4l92 158 0 0c3 6 1 13-5 16l-60 35c0 0 0 0 0 0-2 1-4 1-6 2z m149-58c-7 0-12-5-12-11l0-183 0 0c0-6 5-11 12-11l69 0c0 0 0 0 1 0 6 0 11 5 11 11l0 183 0 0c0 6-5 11-11 11l-69 0c-1 0-1 0-1 0z" horiz-adv-x="1000" />

<glyph glyph-name="docs" unicode="&#xf0c5;" d="M946 636q23 0 38-16t16-38v-678q0-23-16-38t-38-16h-535q-23 0-38 16t-16 38v160h-303q-23 0-38 16t-16 38v375q0 22 11 49t27 42l228 228q15 16 42 27t49 11h232q23 0 38-16t16-38v-183q38 23 71 23h232z m-303-119l-167-167h167v167z m-357 214l-167-167h167v167z m109-361l176 176v233h-214v-233q0-22-15-37t-38-16h-233v-357h286v143q0 22 11 49t27 42z m534-449v643h-215v-232q0-22-15-38t-38-15h-232v-358h500z" horiz-adv-x="1000" />

<glyph glyph-name="menu" unicode="&#xf0c9;" d="M857 100v-71q0-15-10-25t-26-11h-785q-15 0-25 11t-11 25v71q0 15 11 25t25 11h785q15 0 26-11t10-25z m0 286v-72q0-14-10-25t-26-10h-785q-15 0-25 10t-11 25v72q0 14 11 25t25 10h785q15 0 26-10t10-25z m0 285v-71q0-14-10-25t-26-11h-785q-15 0-25 11t-11 25v71q0 15 11 26t25 10h785q15 0 26-10t10-26z" horiz-adv-x="857.1" />

<glyph glyph-name="paste" unicode="&#xf0ea;" d="M429-79h500v358h-233q-22 0-37 15t-16 38v232h-214v-643z m142 804v36q0 7-5 12t-12 6h-393q-7 0-13-6t-5-12v-36q0-7 5-13t13-5h393q7 0 12 5t5 13z m143-375h167l-167 167v-167z m286-71v-375q0-23-16-38t-38-16h-535q-23 0-38 16t-16 38v89h-303q-23 0-38 16t-16 37v750q0 23 16 38t38 16h607q22 0 38-16t15-38v-183q12-7 20-15l228-228q16-15 27-42t11-49z" horiz-adv-x="1000" />

<glyph glyph-name="doc-text" unicode="&#xf0f6;" d="M819 638q16-16 27-42t11-50v-642q0-23-15-38t-38-16h-750q-23 0-38 16t-16 38v892q0 23 16 38t38 16h500q22 0 49-11t42-27z m-248 136v-210h210q-5 17-12 23l-175 175q-6 7-23 12z m215-853v572h-232q-23 0-38 16t-16 37v233h-429v-858h715z m-572 483q0 7 5 12t13 5h393q8 0 13-5t5-12v-36q0-8-5-13t-13-5h-393q-8 0-13 5t-5 13v36z m411-125q8 0 13-5t5-13v-36q0-8-5-13t-13-5h-393q-8 0-13 5t-5 13v36q0 8 5 13t13 5h393z m0-143q8 0 13-5t5-13v-36q0-8-5-13t-13-5h-393q-8 0-13 5t-5 13v36q0 8 5 13t13 5h393z" horiz-adv-x="857.1" />

<glyph glyph-name="plus-squared" unicode="&#xf0fe;" d="M714 314v72q0 14-10 25t-25 10h-179v179q0 15-11 25t-25 11h-71q-15 0-25-11t-11-25v-179h-178q-15 0-25-10t-11-25v-72q0-14 11-25t25-10h178v-179q0-14 11-25t25-11h71q15 0 25 11t11 25v179h179q14 0 25 10t10 25z m143 304v-536q0-66-47-113t-114-48h-535q-67 0-114 48t-47 113v536q0 66 47 113t114 48h535q67 0 114-48t47-113z" horiz-adv-x="857.1" />

<glyph glyph-name="folder-empty" unicode="&#xf114;" d="M857 118v393q0 22-15 38t-38 15h-393q-23 0-38 16t-16 38v36q0 22-15 38t-38 15h-179q-22 0-38-15t-16-38v-536q0-22 16-38t38-16h679q22 0 38 16t15 38z m72 393v-393q0-51-37-88t-88-37h-679q-51 0-88 37t-37 88v536q0 51 37 88t88 37h179q51 0 88-37t37-88v-18h375q51 0 88-37t37-88z" horiz-adv-x="928.6" />

<glyph glyph-name="folder-open-empty" unicode="&#xf115;" d="M994 331q0 19-30 19h-607q-22 0-48-12t-39-29l-164-203q-11-13-11-22 0-20 30-20h607q23 0 48 13t40 29l164 203q10 12 10 22z m-637 90h429v90q0 22-16 38t-38 15h-321q-23 0-38 16t-16 38v36q0 22-15 38t-38 15h-179q-22 0-38-15t-16-38v-476l143 175q25 30 65 49t78 19z m708-90q0-35-25-67l-165-203q-24-30-65-49t-78-19h-607q-51 0-88 37t-37 88v536q0 51 37 88t88 37h179q51 0 88-37t37-88v-18h303q52 0 88-37t37-88v-90h107q30 0 56-13t37-40q8-17 8-37z" horiz-adv-x="1071.4" />

<glyph glyph-name="minus-squared" unicode="&#xf146;" d="M714 314v72q0 14-10 25t-25 10h-500q-15 0-25-10t-11-25v-72q0-14 11-25t25-10h500q14 0 25 10t10 25z m143 304v-536q0-66-47-113t-114-48h-535q-67 0-114 48t-47 113v536q0 66 47 113t114 48h535q67 0 114-48t47-113z" horiz-adv-x="857.1" />

<glyph glyph-name="minus-squared-alt" unicode="&#xf147;" d="M643 404v-36q0-8-5-13t-13-5h-464q-8 0-13 5t-5 13v36q0 7 5 12t13 5h464q8 0 13-5t5-12z m71-250v464q0 37-26 63t-63 26h-464q-37 0-63-26t-27-63v-464q0-37 27-63t63-27h464q37 0 63 27t26 63z m72 464v-464q0-67-47-114t-114-47h-464q-67 0-114 47t-47 114v464q0 66 47 113t114 48h464q66 0 114-48t47-113z" horiz-adv-x="785.7" />

<glyph glyph-name="doc-inv" unicode="&#xf15b;" d="M571 564v264q13-8 21-16l227-228q8-7 16-20h-264z m-71-18q0-22 16-37t38-16h303v-589q0-23-15-38t-38-16h-750q-23 0-38 16t-16 38v892q0 23 16 38t38 16h446v-304z" horiz-adv-x="857.1" />

<glyph glyph-name="doc-text-inv" unicode="&#xf15c;" d="M819 584q8-7 16-20h-264v264q13-8 21-16z m-265-91h303v-589q0-23-15-38t-38-16h-750q-23 0-38 16t-16 38v892q0 23 16 38t38 16h446v-304q0-22 16-37t38-16z m89-411v36q0 8-5 13t-13 5h-393q-8 0-13-5t-5-13v-36q0-8 5-13t13-5h393q8 0 13 5t5 13z m0 143v36q0 8-5 13t-13 5h-393q-8 0-13-5t-5-13v-36q0-8 5-13t13-5h393q8 0 13 5t5 13z m0 143v36q0 7-5 12t-13 5h-393q-8 0-13-5t-5-12v-36q0-8 5-13t13-5h393q8 0 13 5t5 13z" horiz-adv-x="857.1" />

<glyph glyph-name="plus-squared-alt" unicode="&#xf196;" d="M643 404v-36q0-8-5-13t-13-5h-196v-196q0-8-5-13t-13-5h-36q-8 0-13 5t-5 13v196h-196q-8 0-13 5t-5 13v36q0 7 5 12t13 5h196v197q0 8 5 13t13 5h36q8 0 13-5t5-13v-197h196q8 0 13-5t5-12z m71-250v464q0 37-26 63t-63 26h-464q-37 0-63-26t-27-63v-464q0-37 27-63t63-27h464q37 0 63 27t26 63z m72 464v-464q0-67-47-114t-114-47h-464q-67 0-114 47t-47 114v464q0 66 47 113t114 48h464q66 0 114-48t47-113z" horiz-adv-x="785.7" />

<glyph glyph-name="file-code" unicode="&#xf1c9;" d="M819 638q16-16 27-42t11-50v-642q0-23-15-38t-38-16h-750q-23 0-38 16t-16 38v892q0 23 16 38t38 16h500q22 0 49-11t42-27z m-248 136v-210h210q-5 17-12 23l-175 175q-6 7-23 12z m215-853v572h-232q-23 0-38 16t-16 37v233h-429v-858h715z m-518 500q4 7 12 7t13-3l28-21q7-5 7-12t-3-13l-102-136 102-136q4-6 3-13t-7-12l-28-21q-6-4-13-4t-12 7l-126 168q-8 11 0 22z m447-167q8-11 0-22l-126-168q-4-6-11-7t-14 4l-28 21q-6 5-7 12t3 13l102 136-102 136q-4 6-3 13t7 12l28 21q6 4 14 3t11-7z m-346-258q-7 1-11 8t-3 13l77 464q1 7 7 11t14 3l35-5q7-2 11-8t3-13l-77-464q-1-7-7-11t-13-3z" horiz-adv-x="857.1" />

<glyph glyph-name="sliders" unicode="&#xf1de;" d="M196 64v-71h-196v71h196z m197 72q14 0 25-11t11-25v-143q0-14-11-25t-25-11h-143q-14 0-25 11t-11 25v143q0 15 11 25t25 11h143z m89 214v-71h-482v71h482z m-357 286v-72h-125v72h125z m732-572v-71h-411v71h411z m-536 643q15 0 26-10t10-26v-142q0-15-10-25t-26-11h-142q-15 0-25 11t-11 25v142q0 15 11 26t25 10h142z m358-286q14 0 25-10t10-25v-143q0-15-10-25t-25-11h-143q-15 0-25 11t-11 25v143q0 14 11 25t25 10h143z m178-71v-71h-125v71h125z m0 286v-72h-482v72h482z" horiz-adv-x="857.1" />

<glyph glyph-name="trash" unicode="&#xf1f8;" d="M286 82v393q0 8-5 13t-13 5h-36q-8 0-13-5t-5-13v-393q0-8 5-13t13-5h36q8 0 13 5t5 13z m143 0v393q0 8-5 13t-13 5h-36q-8 0-13-5t-5-13v-393q0-8 5-13t13-5h36q8 0 13 5t5 13z m142 0v393q0 8-5 13t-12 5h-36q-8 0-13-5t-5-13v-393q0-8 5-13t13-5h36q7 0 12 5t5 13z m-303 554h250l-27 65q-4 5-9 6h-177q-6-1-10-6z m518-18v-36q0-8-5-13t-13-5h-54v-529q0-46-26-80t-63-34h-464q-37 0-63 33t-27 79v531h-53q-8 0-13 5t-5 13v36q0 8 5 13t13 5h172l39 93q9 21 31 35t44 15h178q23 0 44-15t30-35l39-93h173q8 0 13-5t5-13z" horiz-adv-x="785.7" />
</font>
</defs>
</svg>
